<?xml version="1.0" encoding="iso-8859-1"?>
<!-- Uploaded to: SVG Repo, www.svgrepo.com, Generator: SVG Repo Mixer Tools -->
<svg fill="#000000" height="800px" width="800px" version="1.1" id="Layer_1" xmlns="http://www.w3.org/2000/svg" xmlns:xlink="http://www.w3.org/1999/xlink" 
	 viewBox="0 0 392.533 392.533" xml:space="preserve">
<g>
	<g>
		<path d="M348.962,0.032H43.572C19.523,0.032,0,19.556,0,43.604V330.57c0,20.816,14.675,38.271,34.133,42.602v8.404
			c0,6.012,4.848,10.925,10.925,10.925s10.925-4.849,10.925-10.925v-7.434h280.566v7.434c0,6.012,4.849,10.925,10.925,10.925
			c6.012,0,10.925-4.849,10.925-10.925v-8.339c19.523-4.331,34.133-21.786,34.133-42.602V43.604
			C392.533,19.556,373.01,0.032,348.962,0.032z M21.786,118.465H41.18v137.309H21.786V118.465z M348.962,352.485H43.572
			c-12.024,0-21.786-9.826-21.786-21.786v-53.01H41.18v44.606c0,6.012,4.848,10.925,10.925,10.925h288.323
			c6.012,0,10.925-4.849,10.925-10.925V52.137c0-6.012-4.849-10.925-10.925-10.925H52.105c-6.012,0-10.925,4.848-10.925,10.925
			v44.606H21.786V43.669c0-12.024,9.826-21.786,21.786-21.786h305.325c12.024,0,21.786,9.826,21.786,21.786v287.095h0.063
			C370.711,342.758,360.9,352.485,348.962,352.485z M77.253,255.774H62.966V118.465h14.287c6.012,0,10.925-4.848,10.925-10.925
			c0-6.012-4.849-10.925-10.925-10.925H62.966V62.933h60.251v22.82c0,6.012,4.848,10.925,10.925,10.925s10.925-4.849,10.925-10.925
			v-22.82h21.851v44.606c0,6.012,4.848,10.925,10.925,10.925c6.012,0,10.925-4.848,10.925-10.925V62.933h140.865V311.24H62.966
			v-33.616h14.287c6.012,0,10.925-4.848,10.925-10.925C88.178,260.751,83.2,255.774,77.253,255.774z"/>
	</g>
</g>
<g>
	<g>
		<path d="M299.313,176.194h-13.705c-4.202-17.907-18.23-32-36.137-36.137v-13.705c0-6.012-4.849-10.925-10.925-10.925
			c-6.012,0-10.925,4.849-10.925,10.925v13.705c-17.907,4.202-32,18.23-36.137,36.137h-13.705c-6.012,0-10.925,4.849-10.925,10.925
			c0.065,6.077,4.913,10.925,10.925,10.925h13.705c4.202,17.907,18.23,32,36.137,36.137v13.705c0,6.012,4.849,10.925,10.925,10.925
			c6.012,0,10.925-4.848,10.925-10.925v-13.705c17.907-4.202,32-18.23,36.137-36.137h13.705c6.012,0,10.925-4.849,10.925-10.925
			C310.238,181.107,305.39,176.194,299.313,176.194z M238.545,213.754c-14.675,0-26.57-11.895-26.57-26.57s11.895-26.57,26.57-26.57
			s26.57,11.895,26.57,26.57S253.22,213.754,238.545,213.754z"/>
	</g>
</g>
</svg>