<?xml version="1.0" encoding="utf-8"?><!-- Uploaded to: SVG Repo, www.svgrepo.com, Generator: SVG Repo Mixer Tools -->
<svg width="800px" height="800px" viewBox="0 0 24 24" fill="none" xmlns="http://www.w3.org/2000/svg">
<path fill-rule="evenodd" clip-rule="evenodd" d="M2 10.1707V6C2 4.34315 3.34315 3 5 3H19C20.6569 3 22 4.34315 22 6V10.1707C23.1652 10.5825 24 11.6938 24 13V20C24 20.5523 23.5523 21 23 21C22.4477 21 22 20.5523 22 20V19H2V20C2 20.5523 1.55228 21 1 21C0.447715 21 0 20.5523 0 20V13C0 11.6938 0.834808 10.5825 2 10.1707ZM4 6C4 5.44772 4.44772 5 5 5H19C19.5523 5 20 5.44772 20 6V10H19V9C19 7.34315 17.6569 6 16 6H14C13.2316 6 12.5308 6.28885 12 6.7639C11.4692 6.28885 10.7684 6 10 6H8C6.34315 6 5 7.34315 5 9V10H4V6ZM17 10V9C17 8.44772 16.5523 8 16 8H14C13.4477 8 13 8.44772 13 9V10H17ZM11 10V9C11 8.44772 10.5523 8 10 8H8C7.44772 8 7 8.44772 7 9V10H11ZM21 12C21.5523 12 22 12.4477 22 13V17H2V13C2 12.4477 2.44772 12 3 12H21Z" fill="#0F0F0F"/>
</svg>